<?xml version="1.0" standalone="no"?>
<!DOCTYPE svg PUBLIC "-//W3C//DTD SVG 20010904//EN"
 "http://www.w3.org/TR/2001/REC-SVG-20010904/DTD/svg10.dtd">
<svg version="1.0" xmlns="http://www.w3.org/2000/svg"
 width="326.000000pt" height="237.000000pt" viewBox="0 0 326.000000 237.000000"
 preserveAspectRatio="xMidYMid meet">

<g transform="translate(0.000000,237.000000) scale(0.100000,-0.100000)"
fill="#000000" stroke="none">
<path d="M0 1185 l0 -1185 1630 0 1630 0 0 1185 0 1185 -1630 0 -1630 0 0
-1185z m1390 290 l55 -34 43 25 43 25 112 -82 c62 -46 126 -93 143 -106 l30
-23 144 90 c114 71 147 87 156 77 7 -6 62 -83 122 -170 l110 -157 37 50 c20
28 41 48 45 45 5 -3 55 -72 111 -153 56 -81 118 -169 138 -197 l36 -50 -55 46
c-30 25 -113 90 -185 144 -158 120 -237 186 -332 279 -91 88 -94 85 -129 -80
-13 -65 -27 -126 -30 -136 -3 -11 -25 -20 -71 -28 -98 -17 -103 -21 -103 -85
l0 -54 -57 -17 c-78 -21 -156 -50 -203 -74 l-39 -20 81 117 c44 65 109 159
145 210 l63 92 -117 69 c-178 104 -264 149 -310 163 -39 11 -45 10 -64 -7 -12
-10 -28 -33 -35 -49 -7 -17 -28 -47 -46 -66 -19 -20 -60 -93 -93 -163 l-59
-126 -68 0 -67 0 -26 -83 c-14 -46 -25 -94 -25 -108 l0 -25 -196 -13 c-108 -7
-198 -11 -200 -8 -2 2 37 52 88 110 60 70 97 106 107 103 9 -3 30 -7 46 -10
32 -6 22 -17 332 400 11 15 18 14 79 -10 38 -14 70 -22 73 -17 4 4 26 38 50
74 24 37 48 67 55 67 6 0 36 -16 66 -35z"/>
</g>
</svg>
